<svg xmlns="http://www.w3.org/2000/svg" version="1.1" xmlns:xlink="http://www.w3.org/1999/xlink" xmlns:svgjs="http://svgjs.dev/svgjs" width="100%" height="100%" viewBox="0 0 1000 600"><rect width="1000" height="600" x="0" y="0" fill="#e2d3f4"/><g><rect width="333.3333333333333" height="333.3333333333333" rx="13.333333333333334" ry="13.333333333333334" y="136.19078295916964" fill="#013dc4" transform="matrix(1.0967937747309737,0,0,1.0967937747309737,0,-32.17216943156782)" x="113.96857452392578"/><path d="M172.23570548283058 377.85745306282763L166.63888386569414 377.85745306282763L166.63888386569414 227.85745148133287L172.23570548283058 227.85745148133287L172.23570548283058 377.85745306282763ZM147.6200548519064 377.85745306282763L142.02323323476995 377.85745306282763L142.02323323476995 227.85745148133287L147.6200548519064 227.85745148133287L147.6200548519064 377.85745306282763ZM159.92788016736847 377.85745306282763L154.33105855023203 377.85745306282763L154.33105855023203 227.85745148133287L159.92788016736847 227.85745148133287L159.92788016736847 377.85745306282763ZM253.38961893130903 233.45427309846932L178.97262039234667 233.45427309846932L178.97262039234667 227.85745148133287L253.38961893130903 227.85745148133287L253.38961893130903 233.45427309846932ZM253.38961893130903 245.76209841393143L178.97262039234667 245.76209841393143L178.97262039234667 240.16527679679496L253.38961893130903 240.16527679679496L253.38961893130903 245.76209841393143ZM253.38961893130903 258.0958349405839L178.97262039234667 258.0958349405839L178.97262039234667 252.49901332344749L253.38961893130903 252.49901332344749L253.38961893130903 258.0958349405839ZM242.76602234322593 293.3350821595912L178.97262039234667 293.3350821595912L178.97262039234667 287.7382605424547L242.76602234322593 287.7382605424547L242.76602234322593 293.3350821595912ZM242.76602234322593 305.6688186862437L178.97262039234667 305.6688186862437L178.97262039234667 300.0719970691073L242.76602234322593 300.0719970691073L242.76602234322593 305.6688186862437ZM242.76602234322593 317.9766440017057L178.97262039234667 317.9766440017057L178.97262039234667 312.37982238456937L242.76602234322593 312.37982238456937L242.76602234322593 317.9766440017057ZM253.38961893130903 353.24180243190347L178.97262039234667 353.24180243190347L178.97262039234667 347.644980814767L253.38961893130903 347.644980814767L253.38961893130903 353.24180243190347ZM253.38961893130903 365.54962774736555L178.97262039234667 365.54962774736555L178.97262039234667 359.9528061302291L253.38961893130903 359.9528061302291L253.38961893130903 365.54962774736555ZM253.38961893130903 377.85745306282763L178.97262039234667 377.85745306282763L178.97262039234667 372.26063144569116L253.38961893130903 372.26063144569116L253.38961893130903 377.85745306282763ZM298.55286003625736 377.85745306282763L292.9560384191209 377.85745306282763L292.9560384191209 227.85745148133287L298.55286003625736 227.85745148133287L298.55286003625736 377.85745306282763ZM273.91129819414266 377.85745306282763L268.3144765770062 377.85745306282763L268.3144765770062 227.85745148133287L273.91129819414266 227.85745148133287L273.91129819414266 377.85745306282763ZM286.24503472079516 377.85745306282763L280.6482131036588 377.85745306282763L280.6482131036588 227.85745148133287L286.24503472079516 227.85745148133287L286.24503472079516 377.85745306282763ZM419.24728176135716 377.85745306282763L413.6504601442207 377.85745306282763L413.6504601442207 227.85745148133287L419.24728176135716 227.85745148133287L419.24728176135716 377.85745306282763ZM394.631631130433 377.85745306282763L389.0348095132965 377.85745306282763L389.0348095132965 227.85745148133287L394.631631130433 227.85745148133287L394.631631130433 377.85745306282763ZM406.9394564458951 377.85745306282763L401.3426348287586 377.85745306282763L401.3426348287586 227.85745148133287L406.9394564458951 227.85745148133287L406.9394564458951 377.85745306282763ZM382.32380581497085 245.58071993559827L350.78986179619744 291.2880964755459L347.42140434143937 286.26132150459927L382.32380581497085 235.70854847203816L382.32380581497085 245.58071993559827ZM361.8021265521372 318.7280691262288L358.25229061904605 323.5734656188422L305.2638637345829 247.8349953091671L305.2638637345829 238.29966959108282L361.8021265521372 318.7280691262288ZM382.32380581497085 267.9680064041441L358.43366909737915 302.1189827531526L355.0652116426211 297.06629657101547L382.32380581497085 258.2772134189171L382.32380581497085 267.9680064041441ZM354.13240803976504 329.53304419264487L350.78986179619744 334.585730374782L305.2638637345829 269.65223513152307L305.2638637345829 259.7541524567725L354.13240803976504 329.53304419264487ZM382.32380581497085 289.42248926983376L365.8960979202278 312.74257934123557L362.52764046546974 307.8971828486221L382.32380581497085 279.73169628460676L382.32380581497085 289.42248926983376ZM346.66997921691643 340.3639304702516L343.3274329733489 345.209326962865L305.2638637345829 291.1067179972128L305.2638637345829 281.2086353224622L346.66997921691643 340.3639304702516Z " fill="#e2d3f4" transform="matrix(1.0967937747309737,0,0,1.0967937747309737,0,-32.17216943156782)"/><path d="M624.4856549370751 227.85745148133287L588.2876929040212 277.8660890788946L584.7378569709301 273.20207106461424L617.5673615492259 227.85745148133287L624.4856549370751 227.85745148133287ZM639.7732695394385 227.85745148133287L596.1128786835361 287.9455502319783L592.563042750445 283.28153221769793L632.8808873627797 227.85745148133287L639.7732695394385 227.85745148133287ZM655.0608841418019 227.85745148133287L603.9639756742415 297.99910017387157L600.4141397411503 293.3350821595912L648.1685019651432 227.85745148133287L655.0608841418019 227.85745148133287ZM560.8477202533385 377.85745306282763L555.250898636202 377.85745306282763L555.250898636202 227.85745148133287L560.8477202533385 227.85745148133287L560.8477202533385 377.85745306282763ZM536.2320696224142 377.85745306282763L530.6352480052778 377.85745306282763L530.6352480052778 227.85745148133287L536.2320696224142 227.85745148133287L536.2320696224142 377.85745306282763ZM548.5398949378764 377.85745306282763L542.9430733207399 377.85745306282763L542.9430733207399 227.85745148133287L548.5398949378764 227.85745148133287L548.5398949378764 377.85745306282763ZM656.9264913475141 377.85745306282763L649.8527306925222 377.85745306282763L577.0940496697484 283.6442891743642L580.6438856028396 278.9802711600838L656.9264913475141 377.85745306282763ZM641.4574982668175 377.85745306282763L634.3578264006352 377.85745306282763L569.6316208468998 294.08650728411413L573.181456779991 289.2411107915006L641.4574982668175 377.85745306282763ZM625.7812154965974 377.85745306282763L618.681543630415 377.85745306282763L562.1691920240512 304.5287253938641L565.5117382676189 299.8647073795837L625.7812154965974 377.85745306282763ZM696.8556677919922 377.85745306282763L691.2588461748558 377.85745306282763L691.2588461748558 227.85745148133287L696.8556677919922 227.85745148133287L696.8556677919922 377.85745306282763ZM672.2400171610681 377.85745306282763L666.6431955439316 377.85745306282763L666.6431955439316 227.85745148133287L672.2400171610681 227.85745148133287L672.2400171610681 377.85745306282763ZM684.54784247653 377.85745306282763L678.9510208593937 377.85745306282763L678.9510208593937 227.85745148133287L684.54784247653 227.85745148133287L684.54784247653 377.85745306282763ZM747.4084408245534 315.17823319313754L703.5666714903178 315.17823319313754L703.5666714903178 309.58141157600113L747.4084408245534 309.58141157600113Q758.0579486238269 309.58141157600113 766.7382043726265 304.91739356172076Q775.3925489102355 300.2533755474404 780.522968725944 291.67676464340263Q785.6533885416524 283.07424252817435 785.6533885416524 271.5178423372352L785.6533885416524 271.5178423372352Q785.6533885416524 259.96144214629606 780.522968725944 251.35892003106784Q775.3925489102355 242.78230912703003 766.7382043726265 238.1182911127497Q758.0579486238269 233.45427309846932 747.4084408245534 233.45427309846932L747.4084408245534 233.45427309846932L703.5666714903178 233.45427309846932L703.5666714903178 227.85745148133287L747.4084408245534 227.85745148133287Q759.5348876616823 227.85745148133287 769.5366151811946 233.37653946489797Q779.5124314895165 238.86971623727263 785.394276429748 248.6641540672614Q791.2502101587888 258.4585918972502 791.2502101587888 271.5178423372352L791.2502101587888 271.5178423372352Q791.2502101587888 284.5770927772203 785.394276429748 294.371530607209Q779.5124314895165 304.1659684371978 769.5366151811946 309.6591452095725Q759.5348876616823 315.17823319313754 747.4084408245534 315.17823319313754L747.4084408245534 315.17823319313754ZM747.4084408245534 302.8704078776755L703.5666714903178 302.8704078776755L703.5666714903178 297.27358626053905L747.4084408245534 297.27358626053905Q758.2393271021599 297.27358626053905 765.8054007697704 290.45893771745165Q773.3455632261903 283.6442891743642 773.3455632261903 271.5178423372352L773.3455632261903 271.5178423372352Q773.3455632261903 259.3913955001063 765.8054007697704 252.57674695701883Q758.2393271021599 245.76209841393143 747.4084408245534 245.76209841393143L747.4084408245534 245.76209841393143L703.5666714903178 245.76209841393143L703.5666714903178 240.16527679679496L747.4084408245534 240.16527679679496Q756.1923414181148 240.16527679679496 763.2661020731066 244.00013605298105Q770.3657739392889 247.8349953091671 774.667034996903 254.8310223305877Q778.9423848433267 261.82704935200826 778.9423848433267 271.5178423372352L778.9423848433267 271.5178423372352Q778.9423848433267 281.2086353224622 774.667034996903 288.2046623438828Q770.3657739392889 295.20068936530333 763.2661020731066 299.0355486214894Q756.1923414181148 302.8704078776755 747.4084408245534 302.8704078776755L747.4084408245534 302.8704078776755ZM747.4084408245534 290.53667135102296L703.5666714903178 290.53667135102296L703.5666714903178 284.93984973388655L747.4084408245534 284.93984973388655Q753.0052624416898 284.93984973388655 757.021500176209 281.67503712389026Q761.0377379107282 278.410224513894 761.0377379107282 271.5178423372352L761.0377379107282 271.5178423372352Q761.0377379107282 264.41817047105286 757.021500176209 261.2570027058184Q753.0052624416898 258.0958349405839 747.4084408245534 258.0958349405839L747.4084408245534 258.0958349405839L703.5666714903178 258.0958349405839L703.5666714903178 252.49901332344749L747.4084408245534 252.49901332344749Q755.4409162935917 252.49901332344749 761.0377379107282 257.344409816061Q766.6345595278647 262.18980630867446 766.6345595278647 271.5178423372352L766.6345595278647 271.5178423372352Q766.6345595278647 280.84587836579595 761.0377379107282 285.6912748584095Q755.4409162935917 290.53667135102296 747.4084408245534 290.53667135102296L747.4084408245534 290.53667135102296ZM748.3412444274094 377.85745306282763L703.0225360553185 377.85745306282763L703.0225360553185 372.26063144569116L748.3412444274094 372.26063144569116Q761.9705415135842 372.26063144569116 771.764979343573 366.94883315164964Q781.5594171735618 361.6370348576081 786.8712154676033 352.38673246261874Q792.1830137616449 343.1623412788198 792.1830137616449 331.39865139835706L792.1830137616449 331.39865139835706Q792.1830137616449 324.11760105384167 790.4210514006945 317.51024220027773Q788.6590890397441 310.8769721355235 784.9278746283198 305.85019716457685L784.9278746283198 305.85019716457685Q786.0420567095091 304.91739356172076 787.0525939459365 303.88094511410293Q788.0890423935542 302.8704078776755 788.8404675180773 301.54893610696274L788.8404675180773 301.54893610696274Q797.7798353787813 313.31262598742546 797.7798353787813 331.39865139835706L797.7798353787813 331.39865139835706Q797.7798353787813 344.63928031667524 791.7166119602168 355.1851432711869Q785.6533885416524 365.7310062256987 774.5633901521412 371.79422964426317Q763.4733917626301 377.85745306282763 748.3412444274094 377.85745306282763L748.3412444274094 377.85745306282763ZM748.3412444274094 365.54962774736555L703.0225360553185 365.54962774736555L703.0225360553185 359.9528061302291L748.3412444274094 359.9528061302291Q763.8361487192964 359.9528061302291 771.8686241883348 351.92033066119075Q779.8751884461828 343.9137664033427 779.8751884461828 331.39865139835706L779.8751884461828 331.39865139835706Q779.8751884461828 326.55325490574353 778.7610063649936 321.99288173622494Q777.6468242838044 317.40659735551594 775.5998385997591 313.8567614224248L775.5998385997591 313.8567614224248Q777.0767776376146 313.1312475090923 778.1909597188038 312.1984439062362Q779.3310530111834 311.26564030338017 780.0565669245159 310.5142151788572L780.0565669245159 310.5142151788572Q782.673599254751 314.60818654694776 784.0728046590351 320.0236296857511Q785.4720100633192 325.4390728245544 785.4720100633192 331.39865139835706L785.4720100633192 331.39865139835706Q785.4720100633192 346.1421305657211 775.7812170780923 355.83292355094807Q766.0645128816748 365.54962774736555 748.3412444274094 365.54962774736555L748.3412444274094 365.54962774736555ZM748.3412444274094 353.24180243190347L703.0225360553185 353.24180243190347L703.0225360553185 347.644980814767L748.3412444274094 347.644980814767Q758.6020840588262 347.644980814767 763.0847235947734 343.1623412788198Q767.5673631307208 338.67970174287257 767.5673631307208 331.39865139835706L767.5673631307208 331.39865139835706Q767.5673631307208 324.5062692216983 764.0175271976295 319.4535830395612L764.0175271976295 319.4535830395612Q765.3389989683423 319.090826082895 766.6345595278647 318.4430458031338Q767.930120087387 317.7952655233727 769.2515918580997 317.04384039884974L769.2515918580997 317.04384039884974Q773.1641847478571 323.39208714050915 773.1641847478571 331.39865139835706L773.1641847478571 331.39865139835706Q773.1641847478571 341.11535559477454 767.1009613292927 347.178579013339Q761.0377379107282 353.24180243190347 748.3412444274094 353.24180243190347L748.3412444274094 353.24180243190347Z " fill="#013dc4" transform="matrix(1.0967937747309737,0,0,1.0967937747309737,0,-32.17216943156782)"/></g></svg>